<svg width="272" height="56" viewBox="0 0 272 56" fill="none" xmlns="http://www.w3.org/2000/svg">
<g filter="url(#filter0_d_122_1101)">
<g clip-path="url(#clip0_122_1101)">
<path d="M72.1664 7.51059C71.3638 4.57412 69.0132 2.25882 66.032 1.46824C60.5856 0 38.7999 0 38.7999 0C38.7999 0 17.0141 0 11.5677 1.41176C8.6438 2.20235 6.2359 4.57412 5.43327 7.51059C4 12.8753 4 24 4 24C4 24 4 35.1812 5.43327 40.4894C6.2359 43.4259 8.58647 45.7412 11.5677 46.5318C17.0714 48 38.7999 48 38.7999 48C38.7999 48 60.5856 48 66.032 46.5882C69.0132 45.7976 71.3638 43.4824 72.1664 40.5459C73.5997 35.1812 73.5997 24.0565 73.5997 24.0565C73.5997 24.0565 73.657 12.8753 72.1664 7.51059V7.51059Z" fill="#6842F8"/>
<path d="M43.75 18.6H33.85C34.2625 16.05 34.9187 13.9875 35.8187 12.4125C36.7187 10.8375 37.7125 10.05 38.8 10.05C39.8875 10.05 40.8812 10.8375 41.7812 12.4125C42.6812 13.9875 43.3375 16.05 43.75 18.6ZM33.5687 27.6C33.4562 26.4 33.4 25.2 33.4 24C33.4 22.8 33.4562 21.6 33.5687 20.4H44.0312C44.1437 21.6 44.2 22.8 44.2 24C44.2 25.2 44.1437 26.4 44.0312 27.6H33.5687ZM51.6812 18.6H45.6062C45.0437 15.15 44.1062 12.4875 42.7937 10.6125C44.7812 11.2125 46.5437 12.225 48.0812 13.65C49.6562 15.0375 50.8562 16.6875 51.6812 18.6ZM34.8062 10.6125C33.4562 12.4875 32.5187 15.15 31.9937 18.6H25.9187C26.7437 16.6875 27.925 15.0375 29.4625 13.65C31.0375 12.225 32.8187 11.2125 34.8062 10.6125ZM52.2437 20.4C52.5812 21.6 52.75 22.8 52.75 24C52.75 25.2 52.5812 26.4 52.2437 27.6H45.8312C45.9437 26.3625 46 25.1625 46 24C46 22.8375 45.9437 21.6375 45.8312 20.4H52.2437ZM31.6 24C31.6 25.125 31.6562 26.325 31.7687 27.6H25.3562C25.0187 26.3625 24.85 25.1625 24.85 24C24.85 22.8375 25.0187 21.6375 25.3562 20.4H31.7687C31.6562 21.6375 31.6 22.8375 31.6 24ZM33.85 29.4H43.75C43.3375 31.95 42.6812 34.0125 41.7812 35.5875C40.8812 37.1625 39.8875 37.95 38.8 37.95C37.7125 37.95 36.7187 37.1625 35.8187 35.5875C34.9187 34.0125 34.2625 31.95 33.85 29.4ZM42.7937 37.3875C44.1437 35.5125 45.0812 32.85 45.6062 29.4H51.6812C50.8562 31.3125 49.6562 32.9813 48.0812 34.4063C46.5437 35.7938 44.7812 36.7875 42.7937 37.3875ZM25.9187 29.4H31.9937C32.5562 32.85 33.4937 35.5125 34.8062 37.3875C32.8187 36.7875 31.0375 35.7938 29.4625 34.4063C27.925 32.9813 26.7437 31.3125 25.9187 29.4Z" fill="white"/>
</g>
<path d="M100.826 8.784V37.2H95.4496V8.784H100.826Z" fill="#6842F8"/>
<path d="M104.755 26.4864C104.755 24.336 105.177 22.4288 106.022 20.7648C106.892 19.1008 108.057 17.8208 109.516 16.9248C111.001 16.0288 112.652 15.5808 114.47 15.5808C116.057 15.5808 117.439 15.9008 118.617 16.5408C119.82 17.1808 120.78 17.9872 121.497 18.96V15.9264H126.911V37.2H121.497V34.0896C120.806 35.088 119.846 35.92 118.617 36.5856C117.414 37.2256 116.019 37.5456 114.431 37.5456C112.639 37.5456 111.001 37.0848 109.516 36.1632C108.057 35.2416 106.892 33.9488 106.022 32.2848C105.177 30.5952 104.755 28.6624 104.755 26.4864ZM121.497 26.5632C121.497 25.2576 121.241 24.144 120.729 23.2224C120.217 22.2752 119.526 21.5584 118.655 21.072C117.785 20.56 116.851 20.304 115.852 20.304C114.854 20.304 113.932 20.5472 113.087 21.0336C112.243 21.52 111.551 22.2368 111.014 23.184C110.502 24.1056 110.246 25.2064 110.246 26.4864C110.246 27.7664 110.502 28.8928 111.014 29.8656C111.551 30.8128 112.243 31.5424 113.087 32.0544C113.958 32.5664 114.879 32.8224 115.852 32.8224C116.851 32.8224 117.785 32.5792 118.655 32.0928C119.526 31.5808 120.217 30.864 120.729 29.9424C121.241 28.9952 121.497 27.8688 121.497 26.5632Z" fill="#6842F8"/>
<path d="M143.951 15.6192C146.485 15.6192 148.533 16.4256 150.095 18.0384C151.656 19.6256 152.437 21.8528 152.437 24.72V37.2H147.061V25.4496C147.061 23.76 146.639 22.4672 145.794 21.5712C144.949 20.6496 143.797 20.1888 142.338 20.1888C140.853 20.1888 139.676 20.6496 138.805 21.5712C137.96 22.4672 137.538 23.76 137.538 25.4496V37.2H132.162V15.9264H137.538V18.576C138.255 17.6544 139.164 16.9376 140.264 16.4256C141.391 15.888 142.62 15.6192 143.951 15.6192Z" fill="#6842F8"/>
<path d="M165.882 15.5808C167.47 15.5808 168.865 15.9008 170.068 16.5408C171.271 17.1552 172.218 17.9616 172.91 18.96V15.9264H178.324V37.3536C178.324 39.3248 177.927 41.0784 177.134 42.6144C176.34 44.176 175.15 45.4048 173.562 46.3008C171.975 47.2224 170.055 47.6832 167.802 47.6832C164.782 47.6832 162.298 46.9792 160.353 45.5712C158.433 44.1632 157.345 42.2432 157.089 39.8112H162.426C162.708 40.784 163.31 41.552 164.231 42.1152C165.178 42.704 166.318 42.9984 167.649 42.9984C169.21 42.9984 170.478 42.5248 171.45 41.5776C172.423 40.656 172.91 39.248 172.91 37.3536V34.0512C172.218 35.0496 171.258 35.8816 170.03 36.5472C168.826 37.2128 167.444 37.5456 165.882 37.5456C164.09 37.5456 162.452 37.0848 160.967 36.1632C159.482 35.2416 158.305 33.9488 157.434 32.2848C156.59 30.5952 156.167 28.6624 156.167 26.4864C156.167 24.336 156.59 22.4288 157.434 20.7648C158.305 19.1008 159.47 17.8208 160.929 16.9248C162.414 16.0288 164.065 15.5808 165.882 15.5808ZM172.91 26.5632C172.91 25.2576 172.654 24.144 172.142 23.2224C171.63 22.2752 170.938 21.5584 170.068 21.072C169.198 20.56 168.263 20.304 167.265 20.304C166.266 20.304 165.345 20.5472 164.5 21.0336C163.655 21.52 162.964 22.2368 162.426 23.184C161.914 24.1056 161.658 25.2064 161.658 26.4864C161.658 27.7664 161.914 28.8928 162.426 29.8656C162.964 30.8128 163.655 31.5424 164.5 32.0544C165.37 32.5664 166.292 32.8224 167.265 32.8224C168.263 32.8224 169.198 32.5792 170.068 32.0928C170.938 31.5808 171.63 30.864 172.142 29.9424C172.654 28.9952 172.91 27.8688 172.91 26.5632Z" fill="#6842F8"/>
<path d="M185.955 37.4688C184.983 37.4688 184.176 37.1744 183.536 36.5856C182.922 35.9712 182.615 35.216 182.615 34.32C182.615 33.424 182.922 32.6816 183.536 32.0928C184.176 31.4784 184.983 31.1712 185.955 31.1712C186.903 31.1712 187.683 31.4784 188.298 32.0928C188.912 32.6816 189.219 33.424 189.219 34.32C189.219 35.216 188.912 35.9712 188.298 36.5856C187.683 37.1744 186.903 37.4688 185.955 37.4688Z" fill="#6842F8"/>
<path d="M192.167 26.4864C192.167 24.336 192.59 22.4288 193.434 20.7648C194.305 19.1008 195.47 17.8208 196.929 16.9248C198.414 16.0288 200.065 15.5808 201.882 15.5808C203.47 15.5808 204.852 15.9008 206.03 16.5408C207.233 17.1808 208.193 17.9872 208.91 18.96V15.9264H214.324V37.2H208.91V34.0896C208.218 35.088 207.258 35.92 206.03 36.5856C204.826 37.2256 203.431 37.5456 201.844 37.5456C200.052 37.5456 198.414 37.0848 196.929 36.1632C195.47 35.2416 194.305 33.9488 193.434 32.2848C192.59 30.5952 192.167 28.6624 192.167 26.4864ZM208.91 26.5632C208.91 25.2576 208.654 24.144 208.142 23.2224C207.63 22.2752 206.938 21.5584 206.068 21.072C205.198 20.56 204.263 20.304 203.265 20.304C202.266 20.304 201.345 20.5472 200.5 21.0336C199.655 21.52 198.964 22.2368 198.426 23.184C197.914 24.1056 197.658 25.2064 197.658 26.4864C197.658 27.7664 197.914 28.8928 198.426 29.8656C198.964 30.8128 199.655 31.5424 200.5 32.0544C201.37 32.5664 202.292 32.8224 203.265 32.8224C204.263 32.8224 205.198 32.5792 206.068 32.0928C206.938 31.5808 207.63 30.864 208.142 29.9424C208.654 28.9952 208.91 27.8688 208.91 26.5632Z" fill="#6842F8"/>
<path d="M224.951 18.9984C225.642 18.0256 226.589 17.2192 227.792 16.5792C229.021 15.9136 230.416 15.5808 231.978 15.5808C233.795 15.5808 235.434 16.0288 236.893 16.9248C238.378 17.8208 239.543 19.1008 240.387 20.7648C241.258 22.4032 241.693 24.3104 241.693 26.4864C241.693 28.6624 241.258 30.5952 240.387 32.2848C239.543 33.9488 238.378 35.2416 236.893 36.1632C235.434 37.0848 233.795 37.5456 231.978 37.5456C230.416 37.5456 229.034 37.2256 227.831 36.5856C226.653 35.9456 225.693 35.1392 224.951 34.1664V47.3376H219.575V15.9264H224.951V18.9984ZM236.202 26.4864C236.202 25.2064 235.933 24.1056 235.395 23.184C234.883 22.2368 234.192 21.52 233.322 21.0336C232.477 20.5472 231.555 20.304 230.557 20.304C229.584 20.304 228.663 20.56 227.792 21.072C226.947 21.5584 226.256 22.2752 225.719 23.2224C225.207 24.1696 224.951 25.2832 224.951 26.5632C224.951 27.8432 225.207 28.9568 225.719 29.904C226.256 30.8512 226.947 31.5808 227.792 32.0928C228.663 32.5792 229.584 32.8224 230.557 32.8224C231.555 32.8224 232.477 32.5664 233.322 32.0544C234.192 31.5424 234.883 30.8128 235.395 29.8656C235.933 28.9184 236.202 27.792 236.202 26.4864Z" fill="#6842F8"/>
<path d="M250.976 18.9984C251.667 18.0256 252.614 17.2192 253.817 16.5792C255.046 15.9136 256.441 15.5808 258.003 15.5808C259.82 15.5808 261.459 16.0288 262.918 16.9248C264.403 17.8208 265.568 19.1008 266.412 20.7648C267.283 22.4032 267.718 24.3104 267.718 26.4864C267.718 28.6624 267.283 30.5952 266.412 32.2848C265.568 33.9488 264.403 35.2416 262.918 36.1632C261.459 37.0848 259.82 37.5456 258.003 37.5456C256.441 37.5456 255.059 37.2256 253.856 36.5856C252.678 35.9456 251.718 35.1392 250.976 34.1664V47.3376H245.6V15.9264H250.976V18.9984ZM262.227 26.4864C262.227 25.2064 261.958 24.1056 261.42 23.184C260.908 22.2368 260.217 21.52 259.347 21.0336C258.502 20.5472 257.58 20.304 256.582 20.304C255.609 20.304 254.688 20.56 253.817 21.072C252.972 21.5584 252.281 22.2752 251.744 23.2224C251.232 24.1696 250.976 25.2832 250.976 26.5632C250.976 27.8432 251.232 28.9568 251.744 29.904C252.281 30.8512 252.972 31.5808 253.817 32.0928C254.688 32.5792 255.609 32.8224 256.582 32.8224C257.58 32.8224 258.502 32.5664 259.347 32.0544C260.217 31.5424 260.908 30.8128 261.42 29.8656C261.958 28.9184 262.227 27.792 262.227 26.4864Z" fill="#6842F8"/>
</g>
<defs>
<filter id="filter0_d_122_1101" x="0" y="0" width="274.4" height="56" filterUnits="userSpaceOnUse" color-interpolation-filters="sRGB">
<feFlood flood-opacity="0" result="BackgroundImageFix"/>
<feColorMatrix in="SourceAlpha" type="matrix" values="0 0 0 0 0 0 0 0 0 0 0 0 0 0 0 0 0 0 127 0" result="hardAlpha"/>
<feOffset dy="4"/>
<feGaussianBlur stdDeviation="2"/>
<feComposite in2="hardAlpha" operator="out"/>
<feColorMatrix type="matrix" values="0 0 0 0 0 0 0 0 0 0 0 0 0 0 0 0 0 0 0.04 0"/>
<feBlend mode="normal" in2="BackgroundImageFix" result="effect1_dropShadow_122_1101"/>
<feBlend mode="normal" in="SourceGraphic" in2="effect1_dropShadow_122_1101" result="shape"/>
</filter>
<clipPath id="clip0_122_1101">
<rect width="69.6" height="48" fill="white" transform="translate(4)"/>
</clipPath>
</defs>
</svg>
