<svg width="22" height="22" viewBox="0 0 22 22" fill="none" xmlns="http://www.w3.org/2000/svg">
<path opacity="0.8" d="M10.7188 0.78125C11 0.53125 11.2656 0.53125 11.5156 0.78125L21.3125 10.625C21.5938 10.875 21.5938 11.125 21.3125 11.375L11.5156 21.2188C11.2656 21.4688 11 21.4688 10.7188 21.2188L9.78125 20.2812C9.6875 20.1875 9.64062 20.0625 9.64062 19.9062C9.64062 19.75 9.6875 19.6094 9.78125 19.4844L17.0469 12.2188H1.0625C0.6875 12.2188 0.5 12.0312 0.5 11.6562V10.3438C0.5 9.96875 0.6875 9.78125 1.0625 9.78125H17.0469L9.78125 2.51562C9.53125 2.23438 9.53125 1.96875 9.78125 1.71875L10.7188 0.78125Z" fill="#9CA5B6"/>
</svg>
