<svg width="22" height="22" viewBox="0 0 22 22" fill="none" xmlns="http://www.w3.org/2000/svg">
<path opacity="0.8" d="M11.2813 21.2187C11 21.4687 10.7344 21.4687 10.4844 21.2187L0.687501 11.375C0.406251 11.125 0.406251 10.875 0.687501 10.625L10.4844 0.781249C10.7344 0.531249 11 0.531249 11.2813 0.781249L12.2188 1.71875C12.3125 1.8125 12.3594 1.9375 12.3594 2.09375C12.3594 2.25 12.3125 2.39062 12.2188 2.51562L4.95313 9.78125L20.9375 9.78125C21.3125 9.78125 21.5 9.96875 21.5 10.3437L21.5 11.6562C21.5 12.0312 21.3125 12.2187 20.9375 12.2187L4.95313 12.2187L12.2188 19.4844C12.4688 19.7656 12.4688 20.0312 12.2188 20.2812L11.2813 21.2187Z" fill="#9CA5B6"/>
</svg>
